# xmcd
#
# Track frame offsets:
#	150
#	14217
#	30333
#	47737
#	62405
#	80289
#	94903
#	118675
#	132490
#	147332
#	161527
#
# Disc length: 2632 seconds
# Revision: 0
# Processed by: cddbd v1.5.2PL0 Copyright (c) Steve Scherf et al.
# Submitted via: dBpowerAMP V12.0
#
DISCID=910a460b
DTITLE=Valerie June - Pushin' Against a Stone
DYEAR=2013
DGENRE=Blues Roots
TTITLE0=Workin’ Woman Blues
TTITLE1=Somebody to Love
TTITLE2=The Hour
TTITLE3=Twined and Twisted
TTITLE4=Wanna Be on Your Mind
TTITLE5=Tennessee Time
TTITLE6=Pushin’ Against a Stone
TTITLE7=Trials, Troubles, Tribulations
TTITLE8=You Can’t Be Told
TTITLE9=Shotgun
TTITLE10=On My Way
EXTD=
EXTT0=
EXTT1=
EXTT2=
EXTT3=
EXTT4=
EXTT5=
EXTT6=
EXTT7=
EXTT8=
EXTT9=
EXTT10=
PLAYORDER=
